<svg width="39" height="41" viewBox="0 0 39 41" fill="none" xmlns="http://www.w3.org/2000/svg">
<path d="M39 20.78C39 19.1086 38.8673 17.8889 38.58 16.624H19.8979V24.1679H30.8639C30.6429 26.0427 29.449 28.8661 26.7959 30.7633L26.7587 31.0158L32.6656 35.6907L33.0748 35.7325C36.8333 32.1863 39 26.9687 39 20.78Z" fill="#4285F4"/>
<path d="M19.8979 40.6563C25.2703 40.6563 29.7805 38.8493 33.0748 35.7324L26.7958 30.7632C25.1156 31.9603 22.8604 32.796 19.8979 32.796C14.6361 32.796 10.1701 29.25 8.5781 24.3486L8.34475 24.3689L2.20267 29.2251L2.12234 29.4532C5.39442 36.0936 12.1155 40.6563 19.8979 40.6563Z" fill="#34A853"/>
<path d="M8.57816 24.3486C8.1581 23.0838 7.91499 21.7285 7.91499 20.3282C7.91499 18.9277 8.1581 17.5725 8.55606 16.3077L8.54493 16.0383L2.32588 11.1041L2.1224 11.203C0.773819 13.9586 0 17.0531 0 20.3282C0 23.6032 0.773819 26.6975 2.1224 29.4532L8.57816 24.3486Z" fill="#FBBC05"/>
<path d="M19.8979 7.86016C23.6343 7.86016 26.1546 9.50899 27.5918 10.8869L33.2074 5.28532C29.7585 2.01024 25.2703 0 19.8979 0C12.1155 0 5.39442 4.5625 2.12234 11.203L8.556 16.3077C10.1701 11.4063 14.6361 7.86016 19.8979 7.86016Z" fill="#EB4335"/>
</svg>
