<svg width="149" height="251" viewBox="0 0 149 251" fill="#fffff" xmlns="http://www.w3.org/2000/svg">
<path d="M117 171C108.513 171 100.374 174.371 94.3726 180.373C88.3714 186.374 85 194.513 85 203C85 224.6 113.2 249 114.4 250.04C115.125 250.659 116.047 251 117 251C117.953 251 118.875 250.659 119.6 250.04C121 249 149 224.6 149 203C149 194.513 145.629 186.374 139.627 180.373C133.626 174.371 125.487 171 117 171V171ZM117 241.6C108.48 233.6 93 216.36 93 203C93 196.635 95.5286 190.53 100.029 186.029C104.53 181.529 110.635 179 117 179C123.365 179 129.47 181.529 133.971 186.029C138.471 190.53 141 196.635 141 203C141 216.36 125.52 233.64 117 241.6ZM117 187C113.835 187 110.742 187.938 108.111 189.696C105.48 191.455 103.429 193.953 102.218 196.877C101.007 199.801 100.69 203.018 101.307 206.121C101.925 209.225 103.449 212.076 105.686 214.314C107.924 216.551 110.775 218.075 113.879 218.692C116.982 219.31 120.199 218.993 123.123 217.782C126.047 216.571 128.545 214.52 130.304 211.889C132.062 209.258 133 206.164 133 203C133 198.756 131.314 194.687 128.314 191.686C125.313 188.686 121.243 187 117 187ZM117 211C115.418 211 113.871 210.531 112.555 209.652C111.24 208.773 110.214 207.523 109.609 206.061C109.003 204.6 108.845 202.991 109.154 201.439C109.462 199.887 110.224 198.462 111.343 197.343C112.462 196.224 113.887 195.462 115.439 195.154C116.991 194.845 118.6 195.003 120.061 195.609C121.523 196.214 122.773 197.24 123.652 198.555C124.531 199.871 125 201.418 125 203C125 205.122 124.157 207.156 122.657 208.657C121.157 210.157 119.122 211 117 211Z" fill="white"/>
<path d="M32 0C23.5131 0 15.3737 3.37141 9.37258 9.37255C3.37142 15.3737 0 23.513 0 31.9999C0 53.5998 28.2 77.9997 29.4 79.0397C30.1245 79.6595 31.0466 80 32 80C32.9534 80 33.8755 79.6595 34.6 79.0397C36 77.9997 64 53.5998 64 31.9999C64 23.513 60.6286 15.3737 54.6274 9.37255C48.6263 3.37141 40.4869 0 32 0V0ZM32 70.5998C23.48 62.5998 8 45.3599 8 31.9999C8 25.6347 10.5286 19.5302 15.0294 15.0294C19.5303 10.5285 25.6348 7.99997 32 7.99997C38.3652 7.99997 44.4697 10.5285 48.9706 15.0294C53.4714 19.5302 56 25.6347 56 31.9999C56 45.3599 40.52 62.6398 32 70.5998ZM32 15.9999C28.8355 15.9999 25.7421 16.9383 23.1109 18.6964C20.4797 20.4545 18.4289 22.9534 17.2179 25.877C16.0069 28.8006 15.6901 32.0176 16.3074 35.1213C16.9248 38.225 18.4487 41.0759 20.6863 43.3136C22.9239 45.5512 25.7749 47.0751 28.8786 47.6924C31.9823 48.3098 35.1993 47.9929 38.1229 46.7819C41.0466 45.5709 43.5454 43.5202 45.3035 40.889C47.0616 38.2578 48 35.1644 48 31.9999C48 27.7564 46.3143 23.6868 43.3137 20.6862C40.3131 17.6857 36.2435 15.9999 32 15.9999ZM32 39.9999C30.4177 39.9999 28.871 39.5307 27.5554 38.6516C26.2398 37.7726 25.2145 36.5232 24.609 35.0614C24.0035 33.5995 23.845 31.991 24.1537 30.4392C24.4624 28.8873 25.2243 27.4619 26.3431 26.3431C27.462 25.2242 28.8874 24.4623 30.4393 24.1536C31.9911 23.845 33.5997 24.0034 35.0615 24.6089C36.5233 25.2144 37.7727 26.2398 38.6518 27.5554C39.5308 28.8709 40 30.4177 40 31.9999C40 34.1216 39.1571 36.1564 37.6569 37.6567C36.1566 39.157 34.1217 39.9999 32 39.9999Z" fill="white"/>
<path d="M71 62C89.8656 74.6017 116.277 105.909 71 130.327C25.7226 154.744 52.1344 186.283 71 199" stroke="white" stroke-width="10" stroke-linecap="round" stroke-dasharray="20 20"/>
</svg>
