<svg width="280" height="280" viewBox="0 0 280 280" fill="#00000" xmlns="http://www.w3.org/2000/svg">
<path fill-rule="evenodd" clip-rule="evenodd" d="M20 0H95V4H20C11.1634 4 4 11.1635 4 20V95H0V20C0 8.95431 8.95431 0 20 0ZM0 185V260C0 271.046 8.95431 280 20 280H95V276H20C11.1635 276 4 268.837 4 260V185H0ZM276 185V260C276 268.837 268.837 276 260 276H185V280H260C271.046 280 280 271.046 280 260V185H276ZM280 95V20C280 8.95431 271.046 0 260 0H185V4H260C268.837 4 276 11.1634 276 20V95H280Z" />
</svg>
